# xmcd
#
# Track frame offsets:
#	187
#	17310
#	32207
#	49922
#
# Disc length: 828 seconds
#
# Revision: 0
# Processed by: cddbd v1.5.1PL0 Copyright (c) Steve Scherf et al.
# Submitted via: dBpowerAMP V4.0
#
DISCID=27033a04
DTITLE=Al Green - Hi Records Classics
DYEAR=1989
DGENRE=R&B
TTITLE0=Can't Get Next To You
TTITLE1=Let's Stay Together
TTITLE2=Light My Fire
TTITLE3=Tired of Being Alone
EXTD=
EXTT0=
EXTT1=
EXTT2=
EXTT3=
PLAYORDER=
